<svg xmlns="http://www.w3.org/2000/svg" height="20px" viewBox="0 -960 960 960" width="20px" fill="#1f1f1f"><path d="m462.5-374.5 95-95 95 95L663-385l-95-95 95-95-10.5-10.5-95 95-95-95L452-575l95 95-95 95 10.5 10.5ZM382-249q-11.91 0-22.05-4.84Q349.81-258.69 342-268L177-480l165-212q7.81-9.31 17.95-14.16Q370.09-711 382-711h375.5q20.42 0 34.96 14.55Q807-681.89 807-661.46v363.24q0 20.44-14.54 34.83Q777.92-249 757.5-249H382ZM199-480l156.89 201.5q4.5 6 11.25 9t14.75 3H757.5q14 0 23-9t9-23v-363q0-13.5-9-22.75t-23-9.25H382q-8 0-14.75 3t-11.25 9L199-480Zm370.5 0Z"/></svg>